<?xml version="1.0" standalone="no"?>
<!DOCTYPE svg PUBLIC "-//W3C//DTD SVG 20010904//EN"
 "http://www.w3.org/TR/2001/REC-SVG-20010904/DTD/svg10.dtd">
<svg version="1.0" xmlns="http://www.w3.org/2000/svg"
 width="256.000000pt" height="256.000000pt" viewBox="0 0 256.000000 256.000000"
 preserveAspectRatio="xMidYMid meet">
<metadata>
Created by potrace 1.14, written by Peter Selinger 2001-2017
</metadata>
<g transform="translate(0.000000,256.000000) scale(0.100000,-0.100000)"
fill="#000000" stroke="none">
<path d="M1395 2370 c3 -5 8 -10 11 -10 2 0 4 5 4 10 0 6 -5 10 -11 10 -5 0
-7 -4 -4 -10z"/>
<path d="M1158 2327 c-30 -12 -49 -40 -20 -30 9 3 23 11 31 17 11 8 15 8 18
-1 3 -7 20 -13 39 -13 22 0 33 4 29 10 -4 6 8 5 27 -3 18 -7 38 -23 43 -34 6
-12 17 -28 24 -37 11 -13 12 -19 2 -29 -9 -9 -16 -7 -29 9 -18 23 -62 50 -74
46 -5 -1 -8 2 -8 6 0 12 -111 -2 -140 -17 -14 -7 -38 -25 -54 -40 -16 -14 -26
-20 -22 -14 5 9 -1 11 -24 7 -29 -6 -36 0 -31 29 2 15 -10 5 -73 -59 -48 -48
-76 -88 -106 -152 -23 -48 -46 -94 -51 -102 -5 -8 -12 -22 -15 -30 -13 -33
-26 -57 -49 -89 -14 -18 -22 -37 -19 -42 3 -5 -2 -12 -10 -15 -20 -8 -56 -66
-56 -89 0 -17 1 -17 20 0 11 10 22 16 25 13 4 -4 -27 -53 -55 -85 -8 -10 -6
-13 6 -13 16 0 16 -2 -1 -20 -14 -15 -15 -20 -4 -20 12 -1 11 -3 -1 -13 -8 -7
-22 -21 -30 -31 -14 -18 -13 -19 5 -13 17 6 17 4 -4 -13 -13 -11 -19 -20 -13
-20 15 0 10 -84 -7 -103 -7 -9 -17 -14 -22 -11 -5 3 -10 0 -10 -5 -1 -6 -3
-15 -4 -21 -1 -5 -3 -12 -4 -15 0 -3 -10 -1 -20 5 -17 8 -19 7 -17 -14 4 -32
14 -46 34 -47 10 0 5 -6 -13 -14 -16 -8 -26 -14 -21 -15 5 0 -3 -9 -17 -20
-16 -13 -29 -36 -33 -58 -4 -20 -11 -40 -16 -43 -19 -12 42 -38 105 -45 50 -5
69 -3 89 10 13 9 28 13 31 9 4 -3 7 -1 7 5 0 7 7 12 15 12 13 0 14 -4 4 -22
-11 -23 -11 -23 15 1 14 14 26 19 26 12 0 -8 7 -10 20 -6 37 12 20 -6 -24 -25
-57 -24 -68 -42 -15 -23 23 7 59 12 80 9 22 -2 37 -1 35 3 -3 4 -1 13 5 21 6
10 9 11 9 3 0 -9 7 -10 24 -3 39 15 26 -14 -24 -52 -44 -33 -58 -67 -32 -76 7
-2 10 2 6 11 -7 19 102 97 136 97 51 0 129 27 169 59 23 18 47 31 54 28 6 -2
25 -42 41 -88 16 -46 31 -89 33 -96 4 -9 -14 -11 -64 -9 -37 2 -75 6 -83 9
-29 11 -110 14 -110 5 0 -5 -10 -6 -21 -3 -16 5 -19 4 -14 -5 6 -10 -3 -12
-39 -8 -25 3 -46 2 -46 -3 0 -5 -7 -6 -15 -3 -8 4 -15 1 -15 -5 0 -17 -31 -13
-45 6 -11 15 -15 15 -36 2 -13 -9 -37 -19 -53 -23 -16 -4 -41 -16 -54 -27 -14
-10 -40 -19 -59 -19 -48 0 -72 -15 -66 -40 4 -14 0 -20 -11 -20 -14 0 -15 -4
-5 -21 10 -19 9 -20 -13 -14 -20 7 -21 6 -10 -8 11 -13 10 -16 -7 -19 -20 -3
-20 -4 5 -36 18 -23 62 -50 141 -88 128 -60 263 -94 382 -94 l70 0 29 -42 c35
-51 70 -84 79 -75 3 4 -3 18 -15 30 -22 23 -23 35 -7 85 14 42 30 26 25 -25
-1 -13 4 -23 10 -23 6 0 8 5 5 10 -3 6 0 13 8 16 8 3 17 14 20 24 6 22 -17 45
-33 35 -7 -4 -7 1 1 13 7 12 17 18 21 16 5 -3 6 -10 3 -15 -4 -5 -3 -9 2 -10
74 -10 104 0 96 32 -4 12 2 17 22 17 23 0 26 -4 21 -23 -5 -19 0 -25 27 -36
17 -7 60 -25 94 -41 35 -15 70 -25 79 -21 8 3 32 1 52 -5 20 -7 66 -20 102
-31 36 -11 54 -20 40 -20 -37 -1 -162 27 -174 39 -5 5 -15 10 -21 10 -33 -1
128 -90 163 -90 8 0 33 -6 56 -12 l41 -13 -30 -6 c-26 -5 -27 -7 -10 -13 11
-4 42 -19 68 -33 47 -24 49 -24 62 -6 10 13 14 14 15 4 0 -11 12 -13 58 -8 51
5 55 4 38 -8 -11 -8 -36 -17 -55 -20 -71 -12 -79 -15 -84 -36 -4 -14 1 -22 16
-28 12 -5 25 -7 29 -4 4 2 5 -3 2 -11 -4 -10 3 -16 23 -20 15 -2 -28 -3 -97
-1 -189 6 -404 66 -589 166 -41 22 -78 36 -83 31 -11 -11 144 -91 264 -136
358 -133 644 -123 746 27 45 66 55 109 49 208 -4 70 -12 102 -36 152 l-30 63
53 129 c65 161 101 263 95 270 -3 2 -61 -2 -130 -10 -178 -20 -309 -23 -309
-5 0 5 39 11 88 13 63 2 52 3 -40 4 -107 0 -128 -3 -128 -15 0 -12 -12 -14
-69 -9 -82 7 -143 36 -321 151 -91 59 -207 159 -191 164 6 2 30 -15 52 -37 22
-23 44 -39 49 -36 6 4 13 -2 17 -12 9 -25 34 -42 52 -35 7 3 19 -1 25 -9 16
-20 153 -109 168 -109 7 0 18 -8 25 -19 6 -10 21 -21 32 -24 12 -3 18 -1 15 4
-3 5 -2 19 1 30 5 16 9 18 15 9 5 -7 34 -15 67 -18 32 -2 63 -9 70 -14 7 -5
22 -6 35 -2 13 4 34 8 48 9 56 4 247 26 273 31 32 7 33 9 8 36 -18 19 -26 20
-111 13 -51 -4 -153 -4 -227 0 -126 7 -134 8 -130 26 3 12 -3 25 -16 34 -29
20 -40 19 -32 -5 4 -11 2 -20 -4 -20 -6 0 -11 5 -11 10 0 6 -9 10 -21 10 -27
0 -19 24 9 28 23 4 31 22 10 22 -9 0 -9 3 1 9 12 8 13 12 1 26 -7 9 -23 15
-34 14 -33 -2 -50 0 -44 7 4 3 -8 19 -25 35 -23 22 -37 29 -54 24 -20 -5 -23
-2 -23 25 0 19 -5 30 -14 30 -22 0 -29 -19 -14 -37 10 -13 7 -13 -17 2 -42 26
-41 25 -28 33 7 4 10 18 6 30 -3 12 -9 19 -15 16 -5 -3 -5 -11 2 -19 8 -9 6
-14 -9 -18 -22 -6 -35 15 -19 31 8 8 8 16 -2 27 -7 8 -8 15 -3 15 5 0 18 7 29
15 14 11 15 15 4 14 -36 -3 -49 1 -43 16 3 10 1 15 -7 13 -7 -2 -15 3 -17 10
-3 8 50 68 127 143 l132 130 46 -3 c43 -3 47 -1 56 27 14 40 13 40 33 23 10
-8 41 -23 68 -33 62 -23 63 -24 45 -36 -13 -9 -13 -9 0 -7 16 3 90 -71 90 -89
0 -6 9 -18 20 -28 11 -10 20 -26 20 -37 0 -10 4 -18 8 -18 12 0 48 -68 40 -75
-4 -4 5 -28 18 -55 13 -26 24 -62 24 -79 0 -17 9 -45 19 -62 16 -25 17 -36 8
-56 -7 -17 -7 -27 0 -34 18 -18 35 0 28 31 -4 17 -2 31 6 36 9 5 10 2 6 -10
-4 -10 -3 -15 3 -11 10 6 47 -68 55 -108 8 -36 16 -57 24 -57 5 0 14 -13 21
-30 9 -22 19 -30 38 -30 24 0 24 1 8 19 -16 17 -16 20 0 35 12 13 14 20 5 29
-14 14 -15 37 -1 37 5 0 7 -7 4 -15 -4 -8 -1 -15 4 -15 17 0 19 -34 2 -48 -8
-8 -10 -11 -4 -8 7 3 10 -4 8 -19 -1 -14 2 -25 7 -25 5 0 9 -4 9 -9 0 -5 -26
-13 -57 -18 l-58 -10 77 1 78 1 0 49 c0 57 -37 139 -79 176 -17 15 -40 53 -55
93 -60 160 -102 224 -248 372 -76 77 -138 145 -138 151 0 14 -47 65 -57 62 -4
-2 -10 12 -14 30 -10 49 -18 50 -13 0 l4 -43 -16 35 c-28 60 -37 85 -36 93 1
4 -3 7 -9 7 -5 0 -8 4 -5 9 3 5 -1 14 -9 21 -17 14 -21 35 -5 25 6 -4 7 1 3
11 -4 12 -8 14 -11 5 -3 -8 -8 -7 -18 6 -13 17 -13 17 -14 -4 0 -13 4 -23 9
-23 8 0 61 -98 61 -113 0 -4 -6 -6 -12 -5 -14 3 -14 -11 -2 -51 5 -16 4 -22
-4 -17 -6 3 -14 21 -17 39 -7 33 -53 102 -62 93 -3 -2 10 -34 28 -71 30 -61
34 -85 10 -71 -5 4 -15 23 -21 44 -7 20 -19 43 -28 50 -9 6 -13 12 -10 12 3 0
-16 33 -43 73 -28 39 -61 89 -74 109 -29 43 -69 73 -89 65 -8 -3 -22 1 -33 8
-21 17 -86 18 -125 2z m177 -28 c11 -17 -1 -21 -15 -4 -8 9 -8 15 -2 15 6 0
14 -5 17 -11z m97 -114 c38 -46 39 -50 20 -58 -19 -9 -19 -10 5 -53 14 -24 31
-44 40 -44 18 0 40 -21 40 -40 0 -8 4 -23 8 -32 10 -25 -12 -23 -25 2 -6 11
-8 26 -4 32 4 6 3 8 -3 5 -9 -6 -73 63 -73 78 0 4 -17 28 -37 53 -34 43 -35
45 -6 19 27 -25 31 -26 37 -11 7 17 -42 100 -52 89 -8 -8 -32 16 -32 33 0 20
29 -5 82 -73z m-41 -2 c22 -25 22 -26 2 -9 -13 11 -23 16 -23 12 0 -4 -5 -4
-10 -1 -6 4 -8 11 -5 16 8 13 8 12 36 -18z m-119 -15 c-10 -10 -44 0 -37 12 3
5 14 6 26 3 12 -3 17 -9 11 -15z m58 -18 c0 -5 -6 -10 -14 -10 -8 0 -18 5 -21
10 -3 6 3 10 14 10 12 0 21 -4 21 -10z m180 -94 c0 -11 -19 -15 -25 -6 -3 5 1
10 9 10 9 0 16 -2 16 -4z m-106 -187 c-27 -18 -73 -45 -102 -61 -29 -16 -59
-33 -65 -38 -88 -73 -130 -102 -150 -104 -14 -1 -32 -10 -41 -19 -25 -24 -19
-29 12 -10 25 15 24 14 -7 -20 -19 -20 -38 -34 -42 -32 -11 7 -63 -56 -125
-151 -57 -88 -78 -110 -44 -47 11 21 20 45 20 54 0 17 47 92 61 97 5 2 9 10 9
18 0 22 76 128 119 167 57 51 88 70 117 70 17 0 28 6 31 18 5 20 92 54 130 51
12 -1 41 7 65 18 63 29 69 24 12 -11z m-474 -409 c-6 -11 -13 -20 -16 -20 -2
0 0 9 6 20 6 11 13 20 16 20 2 0 0 -9 -6 -20z m-35 -61 c-9 -17 -19 -28 -22
-25 -6 6 23 56 32 56 3 0 -2 -14 -10 -31z m-37 -64 c-6 -14 -13 -23 -15 -21
-5 5 15 46 22 46 3 0 -1 -11 -7 -25z m-54 -36 c-27 -30 -38 -22 -12 9 13 16
25 25 27 20 1 -5 -5 -18 -15 -29z m342 4 c-6 -15 -9 -15 -16 -3 -6 9 -5 17 3
22 16 10 21 2 13 -19z m1069 -22 c3 -5 1 -12 -5 -16 -5 -3 -10 1 -10 9 0 18 6
21 15 7z m-1425 -14 c0 -2 -10 -12 -22 -23 l-23 -19 19 23 c18 21 26 27 26 19z
m-40 -50 c0 -2 -10 -12 -22 -23 l-23 -19 19 23 c18 21 26 27 26 19z m835 -47
c3 -5 2 -10 -4 -10 -5 0 -13 5 -16 10 -3 6 -2 10 4 10 5 0 13 -4 16 -10z
m-635 -85 c0 -10 -9 -14 -30 -12 -16 1 -30 6 -30 11 0 4 11 5 25 2 14 -4 25
-2 25 4 0 5 2 10 5 10 3 0 5 -7 5 -15z m-185 -45 c-3 -5 -13 -10 -21 -10 -8 0
-12 5 -9 10 3 6 13 10 21 10 8 0 12 -4 9 -10z m455 -435 c0 -8 -4 -15 -10 -15
-5 0 -7 7 -4 15 4 8 8 15 10 15 2 0 4 -7 4 -15z m-140 -29 c0 -3 -4 -8 -10
-11 -5 -3 -10 -1 -10 4 0 6 5 11 10 11 6 0 10 -2 10 -4z m855 -45 c8 -14 -32
-33 -55 -26 -21 7 -25 17 -13 28 10 10 61 8 68 -2z m-58 -48 c6 -16 -33 -26
-54 -14 -16 9 -16 11 7 20 29 11 42 9 47 -6z m-31 -42 c-3 -5 4 -11 16 -15 30
-7 14 -22 -33 -30 -26 -5 -40 -2 -49 9 -9 11 -9 15 -1 15 7 0 19 7 27 15 16
16 49 21 40 6z m62 -82 c-27 -15 -118 -24 -118 -11 0 13 28 19 90 20 35 1 41
-1 28 -9z m107 -169 c19 -7 18 -9 -8 -19 -16 -6 -38 -11 -49 -11 -19 0 -19 1
3 20 27 22 26 22 54 10z"/>
<path d="M1076 1719 c-70 -62 -116 -111 -116 -125 0 -4 17 10 38 32 20 22 66
65 102 97 36 31 61 56 55 56 -5 0 -41 -27 -79 -60z"/>
<path d="M1010 1599 c0 -5 5 -7 10 -4 6 3 10 8 10 11 0 2 -4 4 -10 4 -5 0 -10
-5 -10 -11z"/>
<path d="M900 1498 c-11 -18 -20 -37 -20 -42 0 -12 1 -10 28 37 26 45 19 50
-8 5z"/>
<path d="M1009 2261 c-13 -11 -20 -23 -16 -27 4 -4 20 4 35 19 30 31 16 37
-19 8z"/>
<path d="M1490 2273 c0 -5 12 -20 26 -34 24 -21 26 -22 16 -3 -13 25 -42 50
-42 37z"/>
<path d="M1490 2151 c0 -6 4 -13 10 -16 6 -3 7 1 4 9 -7 18 -14 21 -14 7z"/>
<path d="M1679 1790 c-23 -19 -23 -19 -3 -20 20 0 44 17 44 32 0 14 -17 9 -41
-12z"/>
<path d="M1730 1724 c0 -8 5 -12 10 -9 6 4 8 11 5 16 -9 14 -15 11 -15 -7z"/>
<path d="M1770 1709 c0 -5 5 -7 10 -4 6 3 10 8 10 11 0 2 -4 4 -10 4 -5 0 -10
-5 -10 -11z"/>
<path d="M2041 1263 c7 -12 15 -20 18 -17 3 2 -3 12 -13 22 -17 16 -18 16 -5
-5z"/>
<path d="M1750 1224 c0 -17 18 -36 30 -32 7 2 4 10 -9 22 -12 11 -21 15 -21
10z"/>
<path d="M2038 1073 c6 -2 18 -2 25 0 6 3 1 5 -13 5 -14 0 -19 -2 -12 -5z"/>
<path d="M1668 1063 c18 -2 45 -2 60 0 15 2 0 4 -33 4 -33 0 -45 -2 -27 -4z"/>
<path d="M704 945 c-10 -8 -14 -15 -8 -15 6 0 17 7 24 15 16 19 9 19 -16 0z"/>
<path d="M468 913 c7 -3 16 -2 19 1 4 3 -2 6 -13 5 -11 0 -14 -3 -6 -6z"/>
<path d="M535 910 c3 -5 8 -10 11 -10 2 0 4 5 4 10 0 6 -5 10 -11 10 -5 0 -7
-4 -4 -10z"/>
<path d="M530 860 c0 -5 7 -7 15 -4 8 4 15 8 15 10 0 2 -7 4 -15 4 -8 0 -15
-4 -15 -10z"/>
<path d="M1198 502 c-18 -36 -9 -51 14 -24 10 10 13 24 8 36 -6 18 -8 16 -22
-12z"/>
<path d="M1240 499 c0 -3 15 -12 33 -19 17 -6 44 -18 59 -26 31 -16 38 -17 38
-5 0 5 -16 15 -35 21 -19 6 -35 15 -35 20 0 4 -13 10 -30 12 -16 3 -30 1 -30
-3z"/>
<path d="M1190 436 c0 -9 16 -19 39 -26 22 -6 41 -14 43 -18 4 -11 128 -55
135 -48 4 3 -11 13 -33 21 -101 40 -134 59 -122 68 9 6 7 7 -5 3 -10 -3 -27
-1 -38 4 -15 8 -19 7 -19 -4z"/>
<path d="M1180 370 c0 -13 18 -22 24 -11 3 5 -1 11 -9 15 -8 3 -15 1 -15 -4z"/>
<path d="M1710 235 c0 -8 8 -11 20 -8 11 3 20 7 20 8 0 1 -9 5 -20 8 -12 3
-20 0 -20 -8z"/>
<path d="M1770 220 c-20 -12 -10 -19 14 -10 11 3 15 9 10 13 -6 3 -16 2 -24
-3z"/>
</g>
</svg>
